<svg viewBox="0 0 24 24" xmlns="http://www.w3.org/2000/svg">
  <path fill="#FFFFFF" d="M15.807 13.314c-.235-.117-1.39-.686-1.604-.763-.214-.078-.37-.117-.526.117-.157.234-.6.783-.739.941-.137.157-.271.176-.5.059-.235-.117-.99-.364-1.885-1.159-.697-.62-1.169-1.386-1.306-1.62-.137-.234-.015-.36.102-.476.105-.104.234-.271.351-.406.117-.137.157-.234.235-.39.078-.157.039-.293-.02-.41-.059-.117-.526-1.27-.722-1.744-.19-.457-.386-.398-.526-.398-.137 0-.293-.02-.45-.02-.157 0-.41.058-.625.293-.214.234-.82.802-.82 1.956 0 1.155.84 2.274.957 2.43.117.156 1.654 2.519 4.002 3.532.56.241.997.385 1.341.493.563.179 1.076.154 1.479.093.451-.069 1.39-.571 1.582-1.124.195-.552.195-1.01.137-1.117-.059-.106-.215-.176-.45-.293z"/>
</svg>
